<?xml version="1.0" encoding="UTF-8"?>
<svg id="Layer_1" data-name="Layer 1" xmlns="http://www.w3.org/2000/svg" viewBox="0 0 462.67 160.67">
  <defs>
    <style>
      .cls-1 {
        stroke-width: 0px;
      }

      .cls-1, .cls-2 {
        fill: #205368;
      }

      .cls-2 {
        font-family: MalgunGothic-Semilight, 'Malgun Gothic';
        font-size: 42px;
        font-weight: 300;
      }
    </style>
  </defs>
  <path class="cls-1" d="M47.87,16.92c19.98,0,39.14-.63,58.24.25,10.72.49,17.72,7.93,21.33,17.86,3.56,9.81.96,18.65-5.64,26.43-1.38,1.63-3.1,2.97-5.01,4.76,3.77,6.19,11.64,19.63,11.64,19.63h-15.27c-2.99-4.75-6.14-9.76-9.43-15h-20.66v15h-13.13c-7.27-22.97-14.57-45.66-22.06-68.92ZM84.06,56.77c6.64,0,12.8.24,18.93-.06,6.84-.33,12.23-5.71,12.54-11.93.39-7.73-3.77-13.62-11.34-14.42-6.53-.69-13.19-.14-20.13-.14v26.55Z"/>
  <path class="cls-1" d="M400.06,56.84v15h45v13h-80.12c3.39-1.91,7.48-3.47,10.63-6.14,6.94-5.89,11.15-13.41,11.13-22.85-.03-12.89,0-25.78,0-39.01h58.37c0,4.23,0,8.59,0,13h-45v14h31v13h-31Z"/>
  <path class="cls-1" d="M218.06,57.84v27h-14V16.84h14v27h32v-27h13v68h-13v-27h-32Z"/>
  <path class="cls-1" d="M309.08,85.84h-14.29c-7.37-22.91-14.71-45.74-22.2-69h14.15s9.68,29.92,14.56,44.94l1.12.07c4.83-14.89,14.55-44.01,14.55-44.01h13.97c-7.31,22.74-14.54,45.24-21.86,68Z"/>
  <path class="cls-1" d="M195.81,26.57c-3.18,2.92-6.35,5.83-9.59,8.8-12.52-7.49-23.1-6.81-30.55,2.16-6.95,8.36-6.73,19.32.55,27.77,7.14,8.29,18.11,8.72,30.45,1.07,2.82,2.95,5.68,5.95,8.56,8.96-8.32,12.02-31.41,13.43-45.27,2.64-15.5-12.08-17.23-34.71-3.82-50.11,12.42-14.28,35.72-14.99,49.66-1.29Z"/>
  <path class="cls-1" d="M340.7,16.84h30.84c.1,1.51.29,2.95.29,4.4.02,11.14-.02,22.29.03,33.43.04,8.56-5.12,16.56-15.86,16.88-8.9.26-15.24-6.98-15.28-16.72-.06-12.47-.01-24.94-.01-37.99Z"/>
  <path class="cls-1" d="M28.28,76.84h23.72c.93,2.74,1.87,5.51,3.06,9h-29.69c1.08-3.36,1.98-6.14,2.91-9Z"/>
  <path class="cls-1" d="M33.14,61.84c2.25-6.95,4.4-13.61,7.03-21.77,2.61,8.06,4.75,14.64,7.06,21.77h-14.1Z"/>
  <text class="cls-2" transform="translate(18.21 142.72)"><tspan x="0" y="0" xml:space="preserve">D E S I G N  S T U D I O</tspan></text>
</svg>